<svg xmlns="http://www.w3.org/2000/svg" viewBox="0 0 48 48"><defs><style>.cls-1{fill:#201602;}</style></defs><title>Asset 53ldpi</title><g id="Layer_2" data-name="Layer 2"><g id="layer_1-2" data-name="layer 1"><path class="cls-1" d="M24,26A13,13,0,1,1,37,13,13,13,0,0,1,24,26ZM24,2A11,11,0,1,0,35,13,11,11,0,0,0,24,2Z"/><path class="cls-1" d="M24,48a13,13,0,0,1-8.6-22.75l1.32,1.5a11,11,0,1,0,14.55,0l1.33-1.5A13,13,0,0,1,24,48Z"/><path class="cls-1" d="M10,36H5a5,5,0,0,1-5-5V17a5,5,0,0,1,5-5H9v2H5a3,3,0,0,0-3,3V31a3,3,0,0,0,3,3h5Z"/><path class="cls-1" d="M5.71,17.71,4.29,16.29,7.59,13,4.29,9.71,5.71,8.29l4,4a1,1,0,0,1,0,1.42Z"/><path class="cls-1" d="M43,36H39V34h4a3,3,0,0,0,3-3V17a3,3,0,0,0-3-3H38V12h5a5,5,0,0,1,5,5V31A5,5,0,0,1,43,36Z"/><path class="cls-1" d="M42.29,39.71l-4-4a1,1,0,0,1,0-1.42l4-4,1.42,1.42L40.41,35l3.3,3.29Z"/><path class="cls-1" d="M24,20a4,4,0,0,1-4-4h2a2,2,0,1,0,2-2,4,4,0,1,1,4-4H26a2,2,0,1,0-2,2,4,4,0,0,1,0,8Z"/><rect class="cls-1" x="23" y="19" width="2" height="3"/><rect class="cls-1" x="23" y="4" width="2" height="3"/><rect class="cls-1" x="30" y="12" width="2" height="2"/><rect class="cls-1" x="16" y="12" width="2" height="2"/><path class="cls-1" d="M27,42H24a5,5,0,0,1-5-5V33a5,5,0,0,1,5-5h3v2H24a3,3,0,0,0-3,3v4a3,3,0,0,0,3,3h3Z"/><rect class="cls-1" x="17" y="32" width="8" height="2"/><rect class="cls-1" x="17" y="36" width="8" height="2"/><rect class="cls-1" x="29" y="32" width="2" height="2"/><rect class="cls-1" x="29" y="36" width="2" height="2"/></g></g></svg>