<?xml version="1.0" encoding="UTF-8"?>
<svg xmlns="http://www.w3.org/2000/svg" id="Layer_1" data-name="Layer 1" viewBox="0 0 24 24">
  <path d="m19.5,6h-2.5v-.5c0-2.481-2.019-4.5-4.5-4.5H4.5C2.019,1,0,3.019,0,5.5v1c0,.276.224.5.5.5s.5-.224.5-.5v-1c0-1.93,1.57-3.5,3.5-3.5h8c1.93,0,3.5,1.57,3.5,3.5v12.5H3.5c-1.378,0-2.5-1.121-2.5-2.5v-3c0-.276-.224-.5-.5-.5s-.5.224-.5.5v3c0,1.499.952,2.771,2.28,3.268-.179.387-.28.802-.28,1.232,0,1.654,1.346,3,3,3s3-1.346,3-3c0-.344-.064-.68-.18-1h8.359c-.116.32-.18.655-.18,1,0,1.654,1.346,3,3,3s3-1.346,3-3c0-.43-.101-.845-.28-1.232,1.328-.498,2.28-1.769,2.28-3.268v-5c0-2.481-2.019-4.5-4.5-4.5Zm0,1c1.93,0,3.5,1.57,3.5,3.5v1.5h-6v-5h2.5Zm-12.5,13c0,1.103-.897,2-2,2s-2-.897-2-2c0-.361.122-.705.314-1.019.063.003.122.019.186.019h3.196c.185.309.304.646.304,1Zm14,0c0,1.103-.897,2-2,2s-2-.897-2-2c0-.355.119-.691.304-1h3.196c.064,0,.123-.015.186-.019.192.314.314.657.314,1.019Zm-.5-2h-3.5v-5h6v2.5c0,1.379-1.121,2.5-2.5,2.5ZM.5,9h9.245l-3.101-3.149c-.193-.196-.191-.513.006-.707.196-.194.512-.191.707.006l3.243,3.293c.582.582.582,1.533-.003,2.118l-3.24,3.29c-.098.1-.227.149-.356.149-.126,0-.253-.048-.351-.144-.197-.194-.199-.511-.006-.707l3.101-3.149H.5c-.276,0-.5-.224-.5-.5s.224-.5.5-.5Z"/>
</svg>
